<?xml version="1.0" standalone="no"?>
<!DOCTYPE svg PUBLIC "-//W3C//DTD SVG 20010904//EN"
 "http://www.w3.org/TR/2001/REC-SVG-20010904/DTD/svg10.dtd">
<svg version="1.0" xmlns="http://www.w3.org/2000/svg"
 width="720.000000pt" height="720.000000pt" viewBox="0 0 720.000000 720.000000"
 preserveAspectRatio="xMidYMid meet">
<metadata>
Created by potrace 1.11, written by Peter Selinger 2001-2013
</metadata>
<g transform="translate(0.000000,720.000000) scale(0.100000,-0.100000)"
fill="#000000" stroke="none">
<path d="M3575 5999 c-11 -6 -51 -52 -89 -102 -219 -292 -878 -1166 -1175
-1557 -189 -250 -352 -468 -362 -484 -13 -22 -15 -35 -8 -55 8 -20 316 -439
339 -461 7 -6 386 -508 415 -549 11 -16 98 -131 193 -256 95 -126 170 -230
167 -233 -3 -4 -803 -6 -878 -3 -21 1 -19 4 48 100 25 35 45 71 45 81 0 15
-89 139 -277 386 -12 16 -97 128 -188 249 -91 121 -175 224 -185 229 -43 20
-72 -11 -301 -317 -125 -166 -335 -446 -468 -622 -133 -175 -250 -331 -260
-345 -63 -83 -101 -133 -226 -298 -77 -101 -147 -193 -155 -205 -8 -12 -59
-80 -113 -152 -86 -113 -98 -133 -93 -159 3 -16 14 -35 24 -42 14 -11 466 -13
2574 -14 2264 0 2558 2 2572 15 23 23 28 52 15 77 -7 12 -87 121 -179 243 -92
121 -357 472 -590 780 -421 558 -520 689 -920 1219 -116 153 -210 284 -208
290 5 21 292 405 303 405 6 0 174 -218 375 -485 201 -267 432 -574 513 -682
82 -108 158 -210 170 -226 12 -16 31 -41 43 -55 11 -14 146 -192 299 -396 154
-203 356 -471 450 -595 93 -124 230 -305 304 -403 73 -97 139 -178 145 -178 6
-1 292 -2 635 -3 596 -1 626 0 648 18 17 13 23 27 21 45 -2 23 -371 520 -1333
1796 -567 753 -1459 1937 -1893 2515 -167 223 -313 413 -324 423 -22 19 -43
21 -73 6z"/>
</g>
</svg>
